<svg height="164" viewBox="0 0 196 164" width="196" xmlns="http://www.w3.org/2000/svg" xmlns:xlink="http://www.w3.org/1999/xlink"><mask id="a" fill="#fff"><path d="m.401 28.8995c0 15.951 12.93 28.881 28.8805 28.881s28.8815-12.93 28.8815-28.881c0-15.95-12.931-28.881-28.8815-28.881s-28.8805 12.931-28.8805 28.881" fill="#fff" fill-rule="evenodd"/></mask><mask id="b" fill="#fff"><path d="m.20805.07885h37.53145v37.531h-37.53145z" fill="#fff" fill-rule="evenodd"/></mask><mask id="c" fill="#fff"><path d="m.411 9.5695c0 5.173 4.1935 9.367 9.367 9.367s9.3675-4.194 9.3675-9.367c0-5.1735-4.194-9.3675-9.3675-9.3675s-9.367 4.194-9.367 9.3675" fill="#fff" fill-rule="evenodd"/></mask><g fill="none" fill-rule="evenodd"><g transform="translate(12 29.4815)"><path d="m57.63505.21985c14.629-.0545 29.275 5.4985 40.436 16.6595 2.862 2.862 5.3545 5.953 7.479 9.2135" stroke="#22272d" stroke-width=".85"/><path d="m101.0794 25.692.196-.828 4.0775.9675.6675-4.138.84.136-.814 5.0395z" fill="#22272d"/><path d="m87.657 105.8126c-8.6825 5.369-18.917 8.4685-29.8755 8.4685-31.4145 0-56.881-25.4665-56.881-56.8815 0-20.973 11.351-39.2955 28.246-49.158" stroke="#22272d" stroke-width=".85"/><g fill="#22272d"><path d="m28.55105 12.69395-.8185-.232 1.1465-4.0305-4.105-.8495.1735-.833 4.9985 1.0355z"/><path d="m57.7815 113.85605c-31.13 0-56.456-25.326-56.456-56.4565 0-19.7495 10.4795-38.2205 27.392-48.4005l-.985 3.463.8185.232 1.395-4.91-4.9985-1.035-.1735.833 3.46.716c-17.14 10.3385-27.758 29.072-27.758 49.1015 0 31.5985 25.707 57.306 57.3055 57.306 10.665 0 21.073-2.95 30.099-8.5315l-.447-.723c-8.8915 5.4985-19.145 8.405-29.652 8.405"/><path d="m99.8943 96.2594c9.802-10.615 15.1935-24.3805 15.1935-38.86 0-14.024-5.119-27.52-14.413-38.0025l-.636.5635c9.1565 10.3275 14.199 23.623 14.199 37.439 0 14.281-5.323 27.8565-15 38.3185l-.01-3.5995-.851.0035.0155 5.1045 5.0905-.3865-.064-.8485z"/></g></g><path d="m.401 28.8995c0 15.951 12.93 28.881 28.8805 28.881s28.8815-12.93 28.8815-28.881c0-15.95-12.931-28.881-28.8815-28.881s-28.8805 12.931-28.8805 28.881" fill="#f43939" mask="url(#a)" transform="translate(40.5 57.9815)"/><g transform="translate(54 41.9815)"><path d="m23.02275 33.8795c0-3.999-3.242-7.2405-7.241-7.2405s-7.241 3.2415-7.241 7.2405 3.242 7.2405 7.241 7.2405 7.241-3.2415 7.241-7.2405" fill="#fff"/><path d="m23.02275 33.8795c0-3.999-3.242-7.2405-7.241-7.2405s-7.241 3.2415-7.241 7.2405 3.242 7.2405 7.241 7.2405 7.241-3.2415 7.241-7.2405z" stroke="#fff" stroke-linecap="round" stroke-width=".7145"/><path d="m31.2288 60.4293c0-8.531-6.916-15.4475-15.4475-15.4475-8.531 0-15.4465 6.9165-15.4465 15.4475z" fill="#fff"/><path d="m31.2288 60.4293c0-8.531-6.916-15.4475-15.4475-15.4475-8.531 0-15.4465 6.9165-15.4465 15.4475z" stroke="#fff" stroke-linecap="round" stroke-width=".762"/><path d="m37.73955 18.84435c0-10.3645-8.402-18.7655-18.7655-18.7655-10.364 0-18.766 8.401-18.766 18.7655 0 10.364 8.402 18.7655 18.766 18.7655 10.3635 0 18.7655-8.4015 18.7655-18.7655" fill="#69b0fe" mask="url(#b)" transform="translate(48)"/></g><path d="m.411 9.5695c0 5.173 4.1935 9.367 9.367 9.367s9.3675-4.194 9.3675-9.367c0-5.1735-4.194-9.3675-9.3675-9.3675s-9.367 4.194-9.367 9.3675" fill="#f43939" mask="url(#c)" transform="translate(87.5 125.9815)"/><g transform="translate(56 14.4815)"><path d="m12.5203 32.01865c-3.3 0-6-2.7-6-6v-2c0-3.3 2.7-6 6-6s6 2.7 6 6v2c0 3.3-2.7 6-6 6" fill="#22272d"/><path d="m12.5203 34.51865c-1.2375 0-2.25-1.0125-2.25-2.25v-1c0-1.2375 1.0125-2.25 2.25-2.25s2.25 1.0125 2.25 2.25v1c0 1.2375-1.0125 2.25-2.25 2.25" fill="#22272d"/><path d="m24.7703 12.26865c0 6.7655-5.4845 12.25-12.25 12.25s-12.25-5.4845-12.25-12.25 5.4845-12.25 12.25-12.25 12.25 5.4845 12.25 12.25" fill="#d9e0e7"/><g fill="#fff"><path d="m6.8489 15.44345 4.1715 7.225 4.1715-7.225zm4.1715 8.9255-5.644-9.775h11.288z"/><path d="m9.8489 15.44345 4.1715 7.225 4.1715-7.225zm4.1715 8.9255-5.644-9.775h11.288z"/></g></g></g></svg>