<svg height="24" viewBox="0 0 24 24" width="24" xmlns="http://www.w3.org/2000/svg"><g fill="#fff" transform="translate(2 2)"><path d="m14.0173188 0h-8.06963764c-3.27956522 0-5.94768116 2.66811594-5.94768116 5.94768116v8.06963764c0 3.2795653 2.66811594 5.9476812 5.94768116 5.9476812h8.06963764c3.2795653 0 5.9476812-2.6681159 5.9476812-5.9476812v-8.06963764c0-3.27956522-2.6681522-5.94768116-5.9476812-5.94768116zm3.9392029 14.0173188c0 2.1755435-1.7636594 3.9392029-3.9392029 3.9392029h-8.06963764c-2.17554348 0-3.9392029-1.7636594-3.9392029-3.9392029v-8.06963764c0-2.17557971 1.76365942-3.9392029 3.9392029-3.9392029h8.06963764c2.1755435 0 3.9392029 1.76362319 3.9392029 3.9392029z"/><path d="m9.9825 4.81884058c-2.84724638 0-5.16365942 2.31641304-5.16365942 5.16362319 0 2.84721013 2.31641304 5.16365943 5.16365942 5.16365943 2.8472464 0 5.1636594-2.3164131 5.1636594-5.16365943 0-2.84724638-2.316413-5.16362319-5.1636594-5.16362319zm0 8.31884062c-1.74257246 0-3.15518116-1.4126087-3.15518116-3.1551812 0-1.74257246 1.41264493-3.15518116 3.15518116-3.15518116 1.7425725 0 3.1551812 1.4126087 3.1551812 3.15518116 0 1.7425362-1.412645 3.1551812-3.1551812 3.1551812z"/><circle cx="15.156015" cy="4.857681" r="1.237283"/></g></svg>