<svg height="24" viewBox="0 0 24 24" width="24" xmlns="http://www.w3.org/2000/svg"><path d="m4.44444444 2.22222222c0 1.22222222-.77777777 2.22222222-2.22222222 2.22222222-1.33333333 0-2.22222222-1-2.22222222-2.11111111 0-1.22222222.88888889-2.33333333 2.22222222-2.33333333 1.33333334 0 2.22222222 1 2.22222222 2.22222222zm-4.44444444 17.77777778h4.44444444v-14.44444444h-4.44444444zm15.1111111-14.22222222c-2.3333333 0-3.6666667 1.33333333-4.2222222 2.22222222h-.1111111l-.2222222-1.88888889h-4.00000004c0 1.22222222.11111111 2.66666667.11111111 4.33333329v9.5555556h4.44444443v-7.8888889c0-.4444444 0-.7777778.1111111-1.1111111.3333334-.7777778.8888889-1.77777778 2.1111111-1.77777778 1.5555556 0 2.2222223 1.33333338 2.2222223 3.11111108v7.6666667h4.4444444v-8.2222222c0-4.11111113-2.1111111-6.00000002-4.8888889-6.00000002z" fill="#3897ff" transform="translate(2 1)"/></svg>