<svg enable-background="new 13.218 10.082 93.563 28.836" height="28.836" viewBox="13.218 10.082 93.563 28.836" width="93.563" xmlns="http://www.w3.org/2000/svg" xmlns:xlink="http://www.w3.org/1999/xlink"><linearGradient id="a"><stop offset="0" stop-color="#ff254c"/><stop offset="1" stop-color="#ff2b44"/></linearGradient><linearGradient id="b" gradientTransform="matrix(2.213 0 0 -2.1351 786.9209 761.9778)" gradientUnits="userSpaceOnUse" x1="-328.5542" x2="-327.5632" xlink:href="#a" y1="349.998" y2="349.998"/><linearGradient id="c" gradientTransform="matrix(2.241 0 0 -2.189 829.4529 790.2419)" gradientUnits="userSpaceOnUse" x1="-329.9463" x2="-328.963" xlink:href="#a" y1="354.2881" y2="354.2881"/><linearGradient id="d" gradientTransform="matrix(15.1402 0 0 -11.162 6614.8335 5371.4272)" gradientUnits="userSpaceOnUse" x1="-435.7852" x2="-435.7852" xlink:href="#a" y1="480.2188" y2="481.2188"/><linearGradient id="e" gradientTransform="matrix(1.858 0 0 -10.998 611.2849 5304.8936)" gradientUnits="userSpaceOnUse" x1="-319.8687" x2="-319.8687" xlink:href="#a" y1="479.7207" y2="480.7207"/><linearGradient id="f" gradientTransform="matrix(3.9567 0 0 -2.107 1559.8717 725.3882)" gradientUnits="userSpaceOnUse" x1="-389.9526" x2="-389.9526" xlink:href="#a" y1="337.1826" y2="338.1781"/><linearGradient id="g" gradientTransform="matrix(11.013 0 0 -11.053 4738.1025 5323.394)" gradientUnits="userSpaceOnUse" x1="-429.708" x2="-429.708" xlink:href="#a" y1="479.8887" y2="480.8897"/><linearGradient id="h" gradientTransform="matrix(10.22 0 0 -9.958 4383.207 4768.0327)" gradientUnits="userSpaceOnUse" x1="-427.9785" x2="-427.9785" xlink:href="#a" y1="476.1953" y2="477.194"/><linearGradient id="i" gradientTransform="matrix(11.0135 0 0 -11.1134 4760.7939 5354.4751)" gradientUnits="userSpaceOnUse" x1="-429.7095" x2="-429.7095" xlink:href="#a" y1="480.0723" y2="481.0733"/><linearGradient id="j" gradientTransform="matrix(10.22 0 0 -9.959 4398.5352 4768.5225)" gradientUnits="userSpaceOnUse" x1="-427.979" x2="-427.979" xlink:href="#a" y1="476.1973" y2="477.196"/><linearGradient id="k" gradientTransform="matrix(2 0 0 -2 678.8848 667.7441)" gradientUnits="userSpaceOnUse" x1="-329.2505" x2="-329.2505" xlink:href="#a" y1="327.752" y2="328.7564"/><linearGradient id="l" gradientTransform="matrix(2 0 0 -2 671.8906 667.7441)" gradientUnits="userSpaceOnUse" x1="-329.2505" x2="-329.2505" xlink:href="#a" y1="327.752" y2="328.7564"/><linearGradient id="m" gradientTransform="matrix(4.564 0 0 -6.895 1819.9299 3184.1028)" gradientUnits="userSpaceOnUse" x1="-398.2095" x2="-398.2095" xlink:href="#a" y1="459.6211" y2="460.6211"/><path d="m52.65 19.876h-1.45v-1.75h1.503v-3.174h2.104v3.173h2.678v1.751h-2.678v4.979c0 2.217 1.558 2.518 2.377 2.518.164 0 .274 0 .52-.055v1.888c-.164.026-.41.054-.738.054-1.421 0-4.263-.465-4.263-4.185v-5.199h-.055z" fill="#21272e"/><path d="m60.902 13.639h.054c.603 0 1.065.492 1.065 1.067 0 .602-.492 1.094-1.092 1.067h-.056c-.584-.011-1.055-.483-1.065-1.067.028-.575.493-1.067 1.094-1.067z" fill="url(#b)"/><path d="m59.891 18.016h2.13v11.162h-2.13zm5.41 0h2.077v1.532c0 .465-.055.848-.055.848h.055c.41-.957 1.776-2.626 4.235-2.626 2.623 0 3.826 1.422 3.826 4.268v7.14h-2.131v-6.675c0-1.56-.302-2.79-2.105-2.79-2.186 0-3.717 1.805-3.717 4.103v5.362h-2.131v-11.162zm11.914 0h2.268l2.705 7.55c.192.631.41 1.533.41 1.533h.055s.164-.904.383-1.533l2.706-7.55h2.239l-4.125 11.162h-2.461z" fill="#21272e"/><path d="m91.124 13.611h.054c.602 0 1.094.493 1.094 1.095s-.493 1.094-1.094 1.094h-.054c-.603-.002-1.091-.491-1.093-1.094 0-.602.492-1.095 1.093-1.095z" fill="url(#c)"/><path d="m90.085 18.016h2.131v11.162h-2.131zm10.685-.246c3.334 0 6.012 2.462 6.012 5.827 0 3.393-2.678 5.881-5.984 5.881-3.334 0-6.012-2.461-6.012-5.881-.001-3.392 2.677-5.827 5.984-5.827zm.027 9.822c2.104 0 3.826-1.67 3.826-4.022 0-2.326-1.75-3.967-3.826-3.967-2.104 0-3.824 1.641-3.824 3.967 0 2.353 1.72 4.022 3.824 4.022z" fill="#21272e"/><g transform="translate(13 10)"><path d="m10.302 11.244c.519 0 .929-.41.929-.93v-2.654c0-3.146 2.568-5.718 5.71-5.718 3.143 0 5.74 2.572 5.74 5.718v2.627c0 .52.41.93.928.93.52 0 .93-.41.93-.93v-2.627c0-4.185-3.389-7.578-7.57-7.578-4.179 0-7.569 3.393-7.569 7.578v2.627c-.027.52.41.957.902.957z" fill="url(#d)"/><path d="m16.97 17.92c-.52 0-.93.41-.93.93v9.139c0 .52.41.93.93.93.518 0 .928-.41.928-.93v-9.139c0-.52-.41-.93-.929-.93z" fill="url(#e)"/><path d="m18.335 12.831h-2.732c-.41 0-.738.438-.574.82.327.782 1.093 1.29 1.94 1.287.875 0 1.612-.52 1.94-1.286.137-.383-.164-.82-.574-.821z" fill="url(#f)"/><path d="m7.077 19.178c2.294 0 4.154-1.859 4.154-4.154 0-.001 0-.002 0-.004 0-.52-.41-.93-.93-.93-.518 0-.928.41-.928.93-.007 1.266-1.03 2.291-2.296 2.299-1.266-.009-2.289-1.033-2.295-2.299v-3.255c.002-2.008-1.624-3.637-3.631-3.639-.001 0-.002 0-.003 0-.52 0-.93.41-.93.93s.41.93.93.93c.983 0 1.776.794 1.776 1.78v3.254c-.002 2.295 1.856 4.156 4.15 4.158z" fill="url(#g)"/><path d="m13.39 16.143c-.52 0-.93.409-.93.93v3.912c-.002 1.779-1.444 3.223-3.224 3.228-1.78-.005-3.222-1.448-3.224-3.228 0-.521-.41-.93-.93-.93-.519 0-.929.409-.929.93 0 2.817 2.296 5.115 5.11 5.115 2.815 0 5.11-2.298 5.11-5.115v-3.912c-.054-.521-.464-.93-.983-.93z" fill="url(#h)"/><path d="m32.763 8.125c-2.008 0-3.635 1.628-3.634 3.636v.004 3.254c-.006 1.266-1.03 2.29-2.295 2.299-1.266-.008-2.29-1.033-2.296-2.299 0-.52-.41-.93-.929-.93s-.929.41-.929.93c-.036 2.295 1.795 4.183 4.089 4.219 2.294.035 4.183-1.795 4.218-4.09.001-.043.001-.086 0-.129v-3.255c0-.985.793-1.778 1.776-1.778.52 0 .93-.41.93-.93s-.41-.93-.93-.931z" fill="url(#i)"/><path d="m28.72 20.025c-.52 0-.93.41-.93.931-.001 1.78-1.443 3.225-3.224 3.229-1.781-.004-3.223-1.447-3.225-3.229v-3.913c0-.521-.41-.93-.929-.93s-.929.409-.929.93v3.913c0 2.818 2.295 5.116 5.11 5.116s5.11-2.298 5.11-5.116c-.055-.493-.465-.93-.984-.93z" fill="url(#j)"/><ellipse cx="20.385" cy="11.244" fill="url(#k)" rx="1" ry="1"/><ellipse cx="13.39" cy="11.244" fill="url(#l)" rx="1" ry="1"/><path d="m4.782 15.02v-3.255c.002-2.008-1.624-3.637-3.631-3.639-.001 0-.002 0-.003 0-.52 0-.93.41-.93.93s.41.93.93.93c.983 0 1.776.794 1.776 1.78v3.254" fill="url(#m)"/></g></svg>