<svg height="164" viewBox="0 0 196 164" width="196" xmlns="http://www.w3.org/2000/svg" xmlns:xlink="http://www.w3.org/1999/xlink"><mask id="a" fill="#fff"><path d="m.2825 13.7118035c0 7.527763 6.067 13.6293294 13.551 13.6293294s13.551-6.1015664 13.551-13.6293294c0-7.52726015-6.067-13.62882662-13.551-13.62882662s-13.551 6.10156647-13.551 13.62882662" fill="#fff" fill-rule="evenodd"/></mask><g fill="none" fill-rule="evenodd"><g transform="translate(25 38.303746)"><path d="m148.80475 38.3332058c-7.156 1.5830982-13.7765 4.8418266-19.677 9.6846589-18.846 15.4683989-29.814 22.4832139-72.8185 12.9936763-33.5615-7.4050578-50.333 15.2094104-55.986 25.2752602" stroke="#22272d" stroke-width=".85"/><path d="m148.80475.1135526c-7.156 1.58309827-13.7765 4.84182659-19.677 9.68465896-18.846 15.46839884-29.814 22.48321384-72.8185 12.99367634-33.5615-7.4050578-50.333 15.2094104-55.986 25.2752601" stroke="#22272d" stroke-width=".85"/><path d="m70.20075 22.763726c0-10.4239075-8.402-18.8734682-18.7655-18.8734682-10.364 0-18.766 8.4495607-18.766 18.8734682 0 10.4244104 8.402 18.8739711 18.766 18.8739711 10.3635 0 18.7655-8.4495607 18.7655-18.8739711" fill="#69b0fe"/></g><path d="m.2825 13.7118035c0 7.527763 6.067 13.6293294 13.551 13.6293294s13.551-6.1015664 13.551-13.6293294c0-7.52726015-6.067-13.62882662-13.551-13.62882662s-13.551 6.10156647-13.551 13.62882662" fill="#f43939" mask="url(#a)" transform="translate(98 89.598543)"/><g transform="translate(22 46.852879)"><path d="m30.152 22.0451965h18.161v-18.26597685h-18.161z" stroke="#22272d" stroke-width=".85"/><path d="m55.2569 8.0772711h-6.944v13.9677746h13.888v-5.8435839z" stroke="#22272d" stroke-width=".85"/><path d="m40.30085 22.3138908c0 1.6318786-1.3155 2.9549826-2.938 2.9549826s-2.938-1.323104-2.938-2.9549826c0-1.6318787 1.3155-2.9549827 2.938-2.9549827s2.938 1.323104 2.938 2.9549827" fill="#22272d"/><path d="m40.30085 22.3138908c0 1.6318786-1.3155 2.9549826-2.938 2.9549826s-2.938-1.323104-2.938-2.9549826c0-1.6318787 1.3155-2.9549827 2.938-2.9549827s2.938 1.323104 2.938 2.9549827z" stroke="#22272d" stroke-width=".85"/><path d="m58.68565 22.3138908c0 1.6318786-1.3155 2.9549826-2.9375 2.9549826-1.6225 0-2.938-1.323104-2.938-2.9549826 0-1.6318787 1.3155-2.9549827 2.938-2.9549827 1.622 0 2.9375 1.323104 2.9375 2.9549827" fill="#22272d"/><g stroke="#22272d" stroke-width=".85"><path d="m58.68565 22.3138908c0 1.6318786-1.3155 2.9549826-2.9375 2.9549826-1.6225 0-2.938-1.323104-2.938-2.9549826 0-1.6318787 1.3155-2.9549827 2.938-2.9549827 1.622 0 2.9375 1.323104 2.9375 2.9549827z"/><path d="m71.889 61.495422h14.06v-14.1412717h-14.06z"/><path d="m91.3248 50.6815231h-5.376v10.8141503h10.752v-4.524z"/></g><path d="m79.7457 61.7038197c0 1.2632601-1.018 2.2876474-2.2745 2.2876474-1.256 0-2.2745-1.0243873-2.2745-2.2876474 0-1.2637631 1.0185-2.2876474 2.2745-2.2876474 1.2565 0 2.2745 1.0238843 2.2745 2.2876474" fill="#22272d"/><path d="m79.7457 61.7038197c0 1.2632601-1.018 2.2876474-2.2745 2.2876474-1.256 0-2.2745-1.0243873-2.2745-2.2876474 0-1.2637631 1.0185-2.2876474 2.2745-2.2876474 1.2565 0 2.2745 1.0238843 2.2745 2.2876474z" stroke="#22272d" stroke-width=".85"/><path d="m93.9796 61.7038197c0 1.2632601-1.0185 2.2876474-2.2745 2.2876474-1.2565 0-2.2745-1.0243873-2.2745-2.2876474 0-1.2637631 1.018-2.2876474 2.2745-2.2876474 1.256 0 2.2745 1.0238843 2.2745 2.2876474" fill="#22272d"/><path d="m93.9796 61.7038197c0 1.2632601-1.0185 2.2876474-2.2745 2.2876474-1.2565 0-2.2745-1.0243873-2.2745-2.2876474 0-1.2637631 1.018-2.2876474 2.2745-2.2876474 1.256 0 2.2745 1.0238843 2.2745 2.2876474z" stroke="#22272d" stroke-width=".85"/><path d="m6.30085 38.9092665c0 1.6318786-1.3155 2.9549826-2.938 2.9549826s-2.938-1.323104-2.938-2.9549826 1.3155-2.9549827 2.938-2.9549827 2.938 1.3231041 2.938 2.9549827" fill="#22272d"/><path d="m6.30085 38.9092665c0 1.6318786-1.3155 2.9549826-2.938 2.9549826s-2.938-1.323104-2.938-2.9549826 1.3155-2.9549827 2.938-2.9549827 2.938 1.3231041 2.938 2.9549827z" stroke="#22272d" stroke-width=".85"/><path d="m19.30085 61.5393243c0 1.6318786-1.3155 2.9549826-2.938 2.9549826s-2.938-1.323104-2.938-2.9549826 1.3155-2.9549827 2.938-2.9549827 2.938 1.3231041 2.938 2.9549827" fill="#22272d"/><path d="m19.30085 61.5393243c0 1.6318786-1.3155 2.9549826-2.938 2.9549826s-2.938-1.323104-2.938-2.9549826 1.3155-2.9549827 2.938-2.9549827 2.938 1.3231041 2.938 2.9549827z" stroke="#22272d" stroke-width=".85"/><path d="m53.30085 51.4815208c0 1.6318786-1.3155 2.9549827-2.938 2.9549827s-2.938-1.3231041-2.938-2.9549827 1.3155-2.9549826 2.938-2.9549826 2.938 1.323104 2.938 2.9549826" fill="#22272d"/><path d="m53.30085 51.4815208c0 1.6318786-1.3155 2.9549827-2.938 2.9549827s-2.938-1.3231041-2.938-2.9549827 1.3155-2.9549826 2.938-2.9549826 2.938 1.323104 2.938 2.9549826z" stroke="#22272d" stroke-width=".85"/><path d="m97.30085 18.2907694c0 1.6318786-1.3155 2.9549826-2.938 2.9549826s-2.938-1.323104-2.938-2.9549826 1.3155-2.9549827 2.938-2.9549827 2.938 1.3231041 2.938 2.9549827" fill="#fff"/><path d="m97.30085 18.2907694c0 1.6318786-1.3155 2.9549826-2.938 2.9549826s-2.938-1.323104-2.938-2.9549826 1.3155-2.9549827 2.938-2.9549827 2.938 1.3231041 2.938 2.9549827z" stroke="#22272d" stroke-width=".85"/><path d="m129.80085 43.435278c0 1.6318786-1.3155 2.9549827-2.938 2.9549827s-2.938-1.3231041-2.938-2.9549827 1.3155-2.9549826 2.938-2.9549826 2.938 1.323104 2.938 2.9549826" fill="#fff"/><path d="m129.80085 43.435278c0 1.6318786-1.3155 2.9549827-2.938 2.9549827s-2.938-1.3231041-2.938-2.9549827 1.3155-2.9549826 2.938-2.9549826 2.938 1.323104 2.938 2.9549826z" stroke="#22272d" stroke-width=".85"/><path d="m132.30085 3.20406416c0 1.63187861-1.3155 2.95498266-2.938 2.95498266s-2.938-1.32310405-2.938-2.95498266 1.3155-2.95498266 2.938-2.95498266 2.938 1.32310405 2.938 2.95498266" fill="#fff"/><path d="m132.30085 3.20406416c0 1.63187861-1.3155 2.95498266-2.938 2.95498266s-2.938-1.32310405-2.938-2.95498266 1.3155-2.95498266 2.938-2.95498266 2.938 1.32310405 2.938 2.95498266z" stroke="#22272d" stroke-width=".85"/></g></g></svg>