<svg height="164" viewBox="0 0 196 164" width="196" xmlns="http://www.w3.org/2000/svg" xmlns:xlink="http://www.w3.org/1999/xlink"><mask id="a" fill="#fff"><path d="m0 .22846809h83.4647356v26.93206891h-83.4647356z" fill="#fff" fill-rule="evenodd"/></mask><mask id="b" fill="#fff"><path d="m.30288015.0220434h58.34344945v80.8204596h-58.34344945z" fill="#fff" fill-rule="evenodd"/></mask><mask id="c" fill="#fff"><path d="m18.1316554 4.32683404-.0240899 29.73650216c-.0015056 1.5621191-1.887543 2.3454383-2.9941722 1.2437702l-7.33336334-7.3029447c-1.66922846-1.6695745-4.37532584-1.6695745-6.04405243 0-1.66872659 1.6705787-1.66872659 4.3775489 0 6.0471234l.53349063.5342638c6.09674907 6.0993447 11.09791014 13.1577532 15.27951314 20.7012171.8100224 1.4616936 1.8137678 2.8003659 2.9776105 3.9813702 3.3163745 3.3672681 7.9270786 5.4551149 13.0261048 5.4551149 10.1031985 0 18.2942622-8.1942213 18.2942622-18.3030554 0-.4107404-.0185693-.8169617-.0451685-1.2206723h.0451685v-17.0768596c0-2.6045361-2.1103745-4.7164851-4.7140899-4.7164851-1.4308389 0-2.6779925.7853277-3.3364494 1.9477532-.0065244.011549-.0225843.0070298-.0225843-.0055234v-1.3130638c0-2.3610043-1.8458876-4.3926128-4.205191-4.4292681-2.3919251-.0371575-4.3422023 1.8910128-4.3422023 4.275617v-2.6969276c0-2.3610043-1.8458876-4.3921107-4.2056928-4.428766-2.3909214-.0376596-4.3417004 1.8905106-4.3417004 4.2751149v-16.70428086c0-2.36150638-1.9136405-4.27561702-4.2739476-4.27561702s-4.2734457 1.91411064-4.2734457 4.27561702" fill="#fff" fill-rule="evenodd"/></mask><g fill="none" fill-rule="evenodd"><g transform="translate(23 23.27366)"><path d="m77.5802787 27.160537h-71.69602252c-3.24962547 0-5.88445693-2.6361702-5.88445693-5.8879489v-15.15672342c0-3.25177872 2.63483146-5.88744681 5.88445693-5.88744681h71.69602252c3.2501273 0 5.8844569 2.63566809 5.8844569 5.88744681v15.15672342c0 3.2517787-2.6343296 5.8879489-5.8844569 5.8879489" fill="#69b0fe" mask="url(#a)"/><path d="m14.7462232 6.30797872c-4.2262696 0-7.6651011 3.44057873-7.6651011 7.66899578 0 4.228417 3.4388315 7.6689957 7.6651011 7.6689957 4.2262697 0 7.6651011-3.4405787 7.6651011-7.6689957 0-4.22841705-3.4388314-7.66899578-7.6651011-7.66899578m0 16.34224678c-4.77983519 0-8.66884642-3.8904851-8.66884642-8.673251 0-4.78226386 3.88901123-8.6732511 8.66884642-8.6732511 4.7798352 0 8.6688465 3.89098724 8.6688465 8.6732511 0 4.7827659-3.8890113 8.673251-8.6688465 8.673251" fill="#fff"/><g fill="#22272d"><path d="m14.595009 17.9593991c-.1234607 0-.2469214-.0451914-.3437828-.1360765l-4.99062171-4.6908766c-.20225468-.1898043-.21229213-.5076511-.02258427-.7095064.19020974-.2028596.50789514-.2118979.70964794-.0220936l4.62877154 4.350434 10.243221-10.68728511c.1917153-.20135319.5094007-.20737872.709146-.01506383.2002472.19181277.2067716.50965958.0150562.70950639l-10.5865019 11.04630635c-.0988689.1024341-.2303595.1546553-.362352.1546553"/><path d="m58.6465805 77.7293115v-74.59407661c0-1.7192851-1.3931985-3.11319149-3.1116105-3.11319149h-52.12047936c-1.71841199 0-3.11161049 1.39390639-3.11161049 3.11319149v74.59407661c0 1.7197872 1.3931985 3.1131915 3.11161049 3.1131915h52.12047936c1.718412 0 3.1116105-1.3934043 3.1116105-3.1131915" mask="url(#b)" transform="translate(75.280899 36.655319)"/><path d="m17.8064419 46.3369932c-.9661048 0-1.9317078.3675574-2.6669513 1.1031745-1.4704869 1.4717361-1.4704869 3.8658808 0 5.3371149l.5334907.5342638c5.7002696 5.7031659 10.869558 12.7053362 15.3633258 20.8126893.7839251 1.4139915 1.7580599 2.7170128 2.8963071 3.8724086 3.3695731 3.4209957 7.8688615 5.3054808 12.6687716 5.3054808 9.8106067 0 17.7918876-7.9853362 17.7918876-17.8014298 0-.3545021-.0140524-.7316-.0436629-1.1870298-.0055206-.0833532.0100374-.1657021.0436629-.2405191v-16.8694809c0-2.3238468-1.8890487-4.2143574-4.2117153-4.2143574-1.1974682 0-2.3086143.6487489-2.8998203 1.6931745-.1124194.1988425-.3593408.3017787-.5781573.244034-.2208239-.0577447-.3829288-.2691404-.3829288-.4971064v-1.3130638c0-2.1335404-1.6647116-3.8955064-3.7113483-3.9271404-1.0193034-.0180766-1.9808914.3690638-2.7065993 1.0840936-.7257078.7150298-1.1257004 1.6700766-1.1257004 2.6888936 0 .2776766-.2248389.5021277-.5018726.5021277s-.5018727-.2244511-.5018727-.5021277v-2.6969277c0-2.1335404-1.6647116-3.8950042-3.7113483-3.9266383-1.0188015-.0220936-1.9808914.3690639-2.7065992 1.0840937-.7262098.7150297-1.1257004 1.6700765-1.1257004 2.6893957 0 .2771745-.224839.5021277-.5018727.5021277-.2775356 0-.5018726-.2249532-.5018726-.5021277v-16.7042809c0-2.0813191-1.6923146-3.7739914-3.7720749-3.7739914s-3.7720749 1.6926723-3.7720749 3.7739914l-.0235881 29.7370043c-.0005018.9289362-.5339925 1.7273191-1.3916928 2.0838298-.8587042.3560085-1.8002173.1702213-2.4586742-.4850553l-7.3333633-7.3024426c-.7352434-.7361191-1.7018502-1.1041787-2.6679551-1.1041787m28.7949439 37.9693872c-5.0709214 0-9.8241573-1.990434-13.3839401-5.6047489-1.201985-1.2206724-2.230824-2.5970043-3.0589139-4.0898298-4.4480973-8.0255064-9.5606741-14.9533617-15.1951985-20.5902468l-.5339925-.5342638c-1.8614457-1.8628937-1.8614457-4.8937362.0005019-6.757132 1.8624494-1.8623914 4.8922547-1.8618893 6.7537004 0l7.3323595 7.3014383c.4371311.4348426.9922023.4253022 1.3655955.2691405.3733933-.1546553.772382-.5402894.7728839-1.1569022l.023588-29.7365021c0-2.6341617 2.1424944-4.7777447 4.7758203-4.7777447 2.6333258 0 4.7758202 2.143583 4.7758202 4.7782468v13.7723575c.1289813-.1652.2695056-.3238723.421573-.4735064.918427-.9043319 2.1334607-1.3898894 3.4262847-1.3723149 2.5173932.039166 4.5785842 2.1275149 4.6945168 4.7024255.129985-.1677106.2725169-.3273872.4265918-.4795319.9189288-.904834 2.1284419-1.3913957 3.4262846-1.3723149 2.5741049.0401703 4.6714307 2.2229192 4.6995356 4.8776681.7799101-.6833957 1.7921873-1.0775659 2.8571611-1.0775659 2.8757303 0 5.2154606 2.3409191 5.2154606 5.2186127v17.0768596c0 .0632681-.011543.1235234-.0326217.1792596.0220824.385634.0326217.7210553.0326217 1.0409106 0 10.3694383-8.4319625 18.8056851-18.7956329 18.8056851"/></g></g><path d="m18.1316554 4.32683404-.0240899 29.73650216c-.0015056 1.5621191-1.887543 2.3454383-2.9941722 1.2437702l-7.33336334-7.3029447c-1.66922846-1.6695745-4.37532584-1.6695745-6.04405243 0-1.66872659 1.6705787-1.66872659 4.3775489 0 6.0471234l.53349063.5342638c6.09674907 6.0993447 11.09791014 13.1577532 15.27951314 20.7012171.8100224 1.4616936 1.8137678 2.8003659 2.9776105 3.9813702 3.3163745 3.3672681 7.9270786 5.4551149 13.0261048 5.4551149 10.1031985 0 18.2942622-8.1942213 18.2942622-18.3030554 0-.4107404-.0185693-.8169617-.0451685-1.2206723h.0451685v-17.0768596c0-2.6045361-2.1103745-4.7164851-4.7140899-4.7164851-1.4308389 0-2.6779925.7853277-3.3364494 1.9477532-.0065244.011549-.0225843.0070298-.0225843-.0055234v-1.3130638c0-2.3610043-1.8458876-4.3926128-4.205191-4.4292681-2.3919251-.0371575-4.3422023 1.8910128-4.3422023 4.275617v-2.6969276c0-2.3610043-1.8458876-4.3921107-4.2056928-4.428766-2.3909214-.0376596-4.3417004 1.8905106-4.3417004 4.2751149v-16.70428086c0-2.36150638-1.9136405-4.27561702-4.2739476-4.27561702s-4.2734457 1.91411064-4.2734457 4.27561702" fill="#f43939" mask="url(#c)" transform="translate(40.565543 39.843872)"/><g transform="translate(83.228464 30.822596)"><path d="m21.2028839 102.076579h49.6597977v-68.7914896h-49.6597977z" fill="#d9e0e7"/><path d="m19.6972659 100.570196h49.6597978v-68.7914896h-49.6597978z" fill="#fff"/><path d="m54.6175655 24.0851064h-5.8869662c0-2.2184-1.7982098-4.0170213-4.0149813-4.0170213-2.2172734 0-4.0149813 1.7986213-4.0149813 4.0170213h-6.2643745c-2.4551611 0-4.4631536 2.0095149-4.4631536 4.4659234v3.7544085c0 1.5545872 1.2707416 2.8264766 2.8240375 2.8264766h23.4595355c1.5532959 0 2.8250412-1.2718894 2.8250412-2.8264766v-3.7544085c0-2.4564085-2.0089962-4.4659234-4.4641573-4.4659234" fill="#d9e0e7"/><path d="m59.7842944 49.7318791h-30.4345618c-2.2278127 0-4.0340525-1.8071574-4.0340525-4.0361021 0-2.2294468 1.8062398-4.0361021 4.0340525-4.0361021h30.4345618c2.2278127 0 4.0340524 1.8066553 4.0340524 4.0361021 0 2.2289447-1.8062397 4.0361021-4.0340524 4.0361021" fill="#d9e0e7"/><path d="m32.2004195 45.6765957c0-1.3868766-1.123191-2.5106383-2.5093633-2.5106383s-2.5093633 1.1237617-2.5093633 2.5106383 1.123191 2.5106383 2.5093633 2.5106383 2.5093633-1.1237617 2.5093633-2.5106383z" stroke="#fff" stroke-width=".85"/><path d="m59.7842944 63.289326h-30.4345618c-2.2278127 0-4.0340525-1.8071575-4.0340525-4.0361022 0-2.2294468 1.8062398-4.0361021 4.0340525-4.0361021h30.4345618c2.2278127 0 4.0340524 1.8066553 4.0340524 4.0361021 0 2.2289447-1.8062397 4.0361022-4.0340524 4.0361022" fill="#d9e0e7"/><path d="m32.2004195 59.2340426c0-1.3868766-1.123191-2.5106383-2.5093633-2.5106383s-2.5093633 1.1237617-2.5093633 2.5106383c0 1.3868765 1.123191 2.5106383 2.5093633 2.5106383s2.5093633-1.1237618 2.5093633-2.5106383z" stroke="#fff" stroke-width=".85"/><path d="m59.7842944 76.8467728h-30.4345618c-2.2278127 0-4.0340525-1.8071575-4.0340525-4.0361022 0-2.2294468 1.8062398-4.0361021 4.0340525-4.0361021h30.4345618c2.2278127 0 4.0340524 1.8066553 4.0340524 4.0361021 0 2.2289447-1.8062397 4.0361022-4.0340524 4.0361022" fill="#d9e0e7"/><path d="m32.2004195 72.7914894c0-1.3868766-1.123191-2.5106383-2.5093633-2.5106383s-2.5093633 1.1237617-2.5093633 2.5106383 1.123191 2.5106383 2.5093633 2.5106383 2.5093633-1.1237617 2.5093633-2.5106383z" stroke="#fff" stroke-width=".85"/><path d="m1.38548839 4c11.30367791 0 20.52408241 8.9233106 21.00838951 20.1137277" stroke="#22272d" stroke-width=".85"/><path d="m-.42778701 2.47538217.57514607-.63117447 3.10608988 2.83852766 2.60321349-3.30600851.67.52874042-3.17133334 4.02706383z" fill="#22272d" transform="matrix(0 1 -1 0 6.704067 .605191)"/></g></g></svg>