<svg height="164" viewBox="0 0 196 164" width="196" xmlns="http://www.w3.org/2000/svg"><g fill="none" fill-rule="evenodd" transform="translate(23 29)"><path d="m28.6746116 81.9675-6.3463796 21.166591h111.33649l-6.34638-21.166591z" fill="#fff" stroke="#22272d" stroke-width=".935"/><path d="m127.639513 81.5367693h-99.339513v-51.9248164c0-1.8337565 1.4799676-3.3202862 3.3056291-3.3202862h92.7293589c1.824557 0 3.304525 1.4865297 3.304525 3.3202862z" fill="#21272d"/><path d="m30.5 79.9193154h93.817245v-50.3151487h-93.817245z" fill="#fff"/><path d="m21.7 106.914713h112.589088v-3.33138h-112.589088z" fill="#21272d"/><path d="m110.309796 64.0833333c.252235-.7133376.390204-1.4828038.390204-2.285855 0-3.6922873-2.909651-6.6854991-6.498861-6.6854991-.153845 0-.305902.0073611-.457064.0181727.012075-.2279644.019231-.457079.019231-.6882639 0-6.8713672-5.4147859-12.441888-12.0945492-12.441888-5.5570031 0-10.2354313 3.8567622-11.6520188 9.109375-.1012966-.0034505-.202146-.0082813-.3043371-.0082813-5.3640253 0-9.7124009 4.4734853-9.7124009 9.9915582 0 1.0418273.1554109 2.0463889.4429771 2.9906814z" fill="#69b0fe" stroke="#69b0fe"/><path d="m58 63.6875c.9718585-.0370246 11.68689-.0017631 11.68689-.0017631l5.91311-.0061708c-3.3348594 0-5.9135413-2.7001536-5.9135413-6.03766v-37.671243c0-3.2973963-2.6162104-5.9706631-5.8432294-5.9706631-3.2274503 0-5.8432293 2.6732668-5.8432293 5.9706631v38.6801643z" fill="#dae1e8" stroke="#21272d" stroke-linecap="round" stroke-linejoin="round" stroke-width="1.1"/><path d="m47 14c.9718585.0374533 11.68689.0013376 11.68689.0013376l5.91311.0062422c-3.3348594 0-5.9135413 2.7318623-5.9135413 6.1075647v67.3450635c0 3.3355739-2.6162104 6.039792-5.8432294 6.039792-3.2270189 0-5.8432293-2.7042181-5.8432293-6.039792v-68.3652203z" fill="#fff" stroke="#22272d" stroke-width=".935"/><path d="m53.9 93.8541667c-1.6670368 0-3.1460587-.6538059-4.2243929-1.7123066-1.0448702-1.0926315-1.6793657-2.5810926-1.6793657-4.2255806v-81.91190359c0-3.31645804-2.6705173-6.00437591-5.9645222-6.00437591-3.2944453 0-5.9645222 2.68791787-5.9645222 6.00437591v8.82349819h-25.067197v70.6886054c0 4.6005771 3.7026183 8.3297085 8.2726593 8.3279355 4.7752284-.0022163 34.6273407.0097517 34.6273407.0097517" fill="#dae1e8" stroke="#21272d" stroke-width="1.1"/><path d="m0 8.33993765c0-4.60181887 3.70261829-8.33195685 8.27265935-8.32973996 12.47459615.00576391 34.62734065-.01019769 34.62734065-.01019769-3.404084 0-6.0362937 2.71657618-6.0362937 6.07383338v75.63449992h-36.8637063z" fill="#fff" stroke="#22272d" stroke-width=".935"/><path d="m40.4 68.9375h-33.02287129c-2.41727722 0-4.37712871-2.2247488-4.37712871-4.96875 0-2.7446193 1.95985149-4.96875 4.37712871-4.96875h19.62476209c2.4172772 0 4.3771287 2.2241307 4.3771287 4.96875 0 2.7440012-1.9598515 4.96875-4.3771287 4.96875" fill="#f43939"/><g fill="#22272d"><path d="m30.4530639 21.2287866h-25.87799729c-.31801184 0-.57506661-.2752482-.57506661-.6143933s.25705477-.6143933.57506661-.6143933h25.87799729c.3180118 0 .5750666.2752482.5750666.6143933s-.2570548.6143933-.5750666.6143933"/><path d="m30.4530639 29.2287866h-25.87799729c-.31801184 0-.57506661-.2746338-.57506661-.6143933s.25705477-.6143933.57506661-.6143933h25.87799729c.3180118 0 .5750666.2746338.5750666.6143933s-.2570548.6143933-.5750666.6143933"/><path d="m30.4530639 37.2287866h-25.87799729c-.31801184 0-.57506661-.2746338-.57506661-.6143933s.25705477-.6143933.57506661-.6143933h25.87799729c.3180118 0 .5750666.2746338.5750666.6143933s-.2570548.6143933-.5750666.6143933"/><path d="m30.4530639 46.2287866h-25.87799729c-.31801184 0-.57506661-.2746338-.57506661-.6143933s.25705477-.6143933.57506661-.6143933h25.87799729c.3180118 0 .5750666.2746338.5750666.6143933s-.2570548.6143933-.5750666.6143933"/></g></g></svg>