<svg height="164" viewBox="0 0 196 164" width="196" xmlns="http://www.w3.org/2000/svg" xmlns:xlink="http://www.w3.org/1999/xlink"><mask id="a" fill="#fff"><path d="m.236 15.4125c0 8.261 6.6965 14.958 14.9575 14.958 8.2605 0 14.957-6.697 14.957-14.958 0-8.2605-6.6965-14.9575-14.957-14.9575-8.261 0-14.9575 6.697-14.9575 14.9575" fill="#fff" fill-rule="evenodd"/></mask><mask id="b" fill="#fff"><path d="m.211 6.1545c0 3.3135 2.6865 6 6.0005 6 3.3135 0 6-2.6865 6-6s-2.6865-6-6-6c-3.314 0-6.0005 2.6865-6.0005 6" fill="#fff" fill-rule="evenodd"/></mask><g fill="none" fill-rule="evenodd"><g transform="translate(57 24.435)"><path d="m55.28575 114.7184h-51.123c-2.0135 0-3.646-1.6325-3.646-3.6455v-106.523c0-2.013 1.6325-3.6455 3.646-3.6455h51.123c2.0135 0 3.646 1.6325 3.646 3.6455v106.523c0 2.013-1.6325 3.6455-3.646 3.6455" fill="#22272d"/><g fill="#fff"><path d="m3.362 104.438h52.7245v-93.2535h-52.7245z"/><path d="m20.3927 5.56265c-.5215 0-.946.4245-.946.9465s.4245.946.946.946c.522 0 .947-.424.947-.946s-.425-.9465-.947-.9465m0 3.103c-1.189 0-2.1565-.9675-2.1565-2.1565 0-1.1895.9675-2.157 2.1565-2.157 1.1895 0 2.157.9675 2.157 2.157 0 1.189-.9675 2.1565-2.157 2.1565"/><path d="m39.78575 7.1144h-15.204c-.3345 0-.6055-.271-.6055-.6055 0-.334.271-.605.6055-.605h15.204c.3345 0 .605.271.605.605 0 .3345-.2705.6055-.605.6055"/></g></g><path d="m.236 15.4125c0 8.261 6.6965 14.958 14.9575 14.958 8.2605 0 14.957-6.697 14.957-14.958 0-8.2605-6.6965-14.9575-14.957-14.9575-8.261 0-14.9575 6.697-14.9575 14.9575" fill="#f43939" mask="url(#a)" transform="translate(107.5 31.935)"/><g transform="translate(26 37.435)"><path d="m96.69345.81265c-1.871 0-3.393 1.522-3.393 3.3925 0 1.871 1.522 3.393 3.393 3.393s3.393-1.522 3.393-3.393c0-1.8705-1.522-3.3925-3.393-3.3925m0 7.4995c-2.2645 0-4.107-1.8425-4.107-4.107s1.8425-4.107 4.107-4.107 4.107 1.8425 4.107 4.107-1.8425 4.107-4.107 4.107" fill="#fff"/><path d="m89.08385 17.57435h15.219c-.1985-4.025-3.536-7.2385-7.6095-7.2385s-7.4105 3.2135-7.6095 7.2385zm15.9905.7615h-16.7615v-.3805c0-4.621 3.7595-8.381 8.3805-8.381 4.6215 0 8.381 3.76 8.381 8.381z" fill="#fff"/><path d="m43.45105 22.9425h28.659c1.712 0 3.1-1.388 3.1-3.1v-11.0865l5.501-4.8515h-37.26c-1.712 0-3.1 1.3875-3.1 3.1v12.838c0 1.712 1.388 3.1 3.1 3.1" fill="#69b0fe"/><g fill="#d9e0e7"><path d="m63.6112 66.1925h-39.159c-1.712 0-3.1-1.388-3.1-3.1v-5.5865l-5.501-4.8515h47.76c1.712 0 3.1 1.3875 3.1 3.1v7.338c0 1.712-1.388 3.1-3.1 3.1"/><path d="m63.6112 44.6925h-39.159c-1.712 0-3.1-1.388-3.1-3.1v-5.5865l-5.501-4.8515h47.76c1.712 0 3.1 1.3875 3.1 3.1v7.338c0 1.712-1.388 3.1-3.1 3.1"/><path d="m63.6112 87.6925h-39.159c-1.712 0-3.1-1.388-3.1-3.1v-5.5865l-5.501-4.8515h47.76c1.712 0 3.1 1.3875 3.1 3.1v7.338c0 1.712-1.388 3.1-3.1 3.1"/></g><g stroke="#22272d" stroke-width=".85"><path d="m124.51135 9.65445c0 15.4915-12.5585 28.05-28.05 28.05"/><path d="m143.2113 9.65445c0 25.8195-20.9305 46.75-46.75 46.75"/><path d="m12.2113 54.65445c0-3.3135-2.6865-6-6-6s-6 2.6865-6 6 2.6865 6 6 6 6-2.6865 6-6z"/></g><path d="m12.2113 33.15445c0-3.3135-2.6865-6-6-6s-6 2.6865-6 6 2.6865 6 6 6 6-2.6865 6-6" fill="#69b0fe"/></g><path d="m.211 6.1545c0 3.3135 2.6865 6 6.0005 6 3.3135 0 6-2.6865 6-6s-2.6865-6-6-6c-3.314 0-6.0005 2.6865-6.0005 6" fill="#f43939" mask="url(#b)" transform="translate(26 107.435)"/></g></svg>